<svg xmlns="http://www.w3.org/2000/svg" width="2000" height="1125" viewBox="0 0 2000 1125" version="1.1">
	<path d="M 689 462 L 689 528 731 528 C 772.333 528, 773 527.968, 773 526 C 773 524.044, 772.333 524, 742.500 524 L 712 524 712 494 L 712 464 735 464 C 757.333 464, 758 463.942, 758 462 C 758 460.058, 757.333 460, 735 460 L 712 460 712 430 L 712 400 742.500 400 C 772.333 400, 773 399.956, 773 398 C 773 396.032, 772.333 396, 731 396 L 689 396 689 462 M 796.792 402.294 C 815.123 444.901, 851.615 527.985, 852 527.989 C 852.372 527.992, 896.613 432.180, 911.201 399.778 C 912.886 396.036, 912.881 396, 910.701 396.017 C 908.770 396.033, 905.749 402.077, 886.085 445.267 C 873.756 472.345, 863.377 494.845, 863.019 495.266 C 862.661 495.687, 859.175 488.712, 855.272 479.766 C 851.369 470.820, 841.555 448.313, 833.462 429.750 L 818.748 396 806.416 396 L 794.084 396 796.792 402.294 M 963 458.225 C 947.325 492.445, 933.735 522.144, 932.799 524.222 C 931.114 527.964, 931.119 528, 933.299 527.989 C 935.181 527.980, 936.744 525.261, 944.077 509.239 L 952.654 490.500 980.691 490.235 L 1008.727 489.969 1017.046 508.985 L 1025.364 528 1037.640 528 L 1049.916 528 1047.208 521.706 C 1028.877 479.099, 992.385 396.015, 992 396.011 C 991.725 396.009, 978.675 424.005, 963 458.225 M 1075 462 L 1075 528 1086.500 528 L 1098 528 1098 498 L 1098 468 1111.304 468 C 1123.621 468, 1124.993 468.192, 1129.818 470.596 C 1140.122 475.731, 1144.985 485.860, 1150.537 513.750 L 1153.373 528 1164.687 528 C 1173.936 528, 1176 527.734, 1176 526.541 C 1176 525.738, 1174.219 516.698, 1172.042 506.451 C 1169.397 493.997, 1167.265 486.422, 1165.613 483.602 C 1162.459 478.220, 1155.037 471.366, 1149.845 469.042 C 1145.465 467.081, 1145.543 466.891, 1151.500 464.978 C 1160.307 462.149, 1168.055 455.233, 1172.604 446.142 C 1175.038 441.277, 1175.426 439.330, 1175.424 432 C 1175.421 424.793, 1175.006 422.644, 1172.696 417.874 C 1169.670 411.624, 1162.453 404.292, 1156.174 401.089 C 1147.473 396.650, 1141.501 396.030, 1107.250 396.015 L 1075 396 1075 462 M 1231 458.225 C 1215.325 492.445, 1201.735 522.144, 1200.799 524.222 C 1199.114 527.964, 1199.119 528, 1201.299 527.989 C 1203.181 527.980, 1204.744 525.261, 1212.077 509.239 L 1220.654 490.500 1248.691 490.235 L 1276.727 489.969 1285.046 508.985 L 1293.364 528 1305.640 528 L 1317.916 528 1315.208 521.706 C 1296.877 479.099, 1260.385 396.015, 1260 396.011 C 1259.725 396.009, 1246.675 424.005, 1231 458.225 M 1098 432 L 1098 464 1114.250 463.990 C 1129.181 463.981, 1130.906 463.791, 1135.500 461.642 C 1142.088 458.560, 1148.195 451.758, 1150.961 444.419 C 1154.077 436.152, 1153.535 423.801, 1149.732 416.392 C 1146.509 410.113, 1138.555 402.782, 1133.236 401.189 C 1130.904 400.490, 1122.820 400, 1113.634 400 L 1098 400 1098 432 M 968.190 456.690 C 960.961 472.470, 955.194 485.527, 955.374 485.707 C 955.554 485.887, 967.223 485.914, 981.305 485.767 L 1006.910 485.500 994.600 457.229 C 987.830 441.679, 982.075 428.742, 981.812 428.479 C 981.549 428.216, 975.420 440.911, 968.190 456.690 M 1236.179 456.679 C 1228.938 472.446, 1223.169 485.502, 1223.358 485.691 C 1223.546 485.880, 1235.223 485.914, 1249.305 485.767 L 1274.910 485.500 1262.600 457.229 C 1255.830 441.679, 1250.077 428.744, 1249.817 428.484 C 1249.556 428.223, 1243.419 440.911, 1236.179 456.679 M 946.309 560.636 C 945.964 561.536, 946.206 562.998, 946.847 563.886 C 949.202 567.147, 949.169 568.090, 946.581 571.483 C 936.588 584.584, 897.504 596.196, 889.075 588.568 L 887.036 586.723 889.930 583.427 C 893.893 578.914, 894.582 576.301, 892.435 573.928 C 889.863 571.086, 887.168 571.565, 883.560 575.504 C 880.916 578.391, 878.882 579.379, 871.995 581.121 C 865.022 582.884, 861.724 583.148, 852.070 582.717 C 834.792 581.946, 830.183 580.079, 829.106 573.418 C 828.613 570.363, 827.981 569.430, 826.237 569.180 C 824.144 568.882, 824 569.230, 824 574.586 C 824 581.022, 821.366 585.587, 815.634 589.081 C 807.899 593.798, 805.494 590.098, 808.878 578.682 C 811.586 569.544, 811.654 566, 809.121 566 C 807.243 566, 806.330 567.647, 804.002 575.231 C 802.733 579.369, 801.733 579.808, 787.288 582.572 C 777.858 584.376, 770.168 584.364, 762.399 582.531 C 752.998 580.315, 751.123 579.169, 749.986 574.949 C 749.349 572.583, 747.693 570.241, 745.446 568.527 C 742.120 565.990, 741.767 565.922, 739.521 567.394 C 734.126 570.929, 729.136 580.084, 729.044 586.615 C 728.991 590.339, 732.365 595, 735.112 595 C 739.761 595, 744.763 591.262, 749.548 584.211 C 749.656 584.052, 753.044 584.837, 757.078 585.954 C 770.669 589.721, 779.980 589.396, 799.250 584.484 C 801.736 583.850, 802 584.038, 802 586.441 C 802 590.133, 804.568 594.728, 807.076 595.524 C 811.760 597.011, 816.247 595.008, 822.460 588.655 L 828.500 582.479 834 584.346 C 841.893 587.025, 863.384 587.802, 871.500 585.702 C 874.800 584.849, 878.245 583.860, 879.155 583.504 C 880.410 583.015, 880.972 583.598, 881.482 585.917 C 882.836 592.084, 890.588 595.576, 900.987 594.704 C 909.891 593.958, 918.368 591.697, 930.927 586.718 C 941.471 582.537, 945.428 579.677, 951.255 572.026 L 953.901 568.552 959.468 570.444 C 967.267 573.095, 967.480 573.509, 965.937 583.013 C 964.703 590.611, 964.741 591.177, 966.663 593.767 C 969.487 597.572, 974.551 598.658, 982.815 597.230 C 991.879 595.663, 1000.684 592.692, 1011.884 587.418 C 1017.045 584.988, 1021.433 583, 1021.634 583 C 1021.835 583, 1022 584.738, 1022 586.863 L 1022 590.726 1013.250 592.454 C 1001.765 594.722, 995.796 597.377, 991.508 602.122 C 986.337 607.846, 987.102 612.891, 993.548 615.585 C 998.169 617.515, 1001.955 617.363, 1008.292 614.992 C 1015.499 612.295, 1020.983 607.386, 1024.812 600.201 L 1027.984 594.250 1037.742 591.996 C 1043.109 590.756, 1052.090 588.285, 1057.700 586.504 L 1067.900 583.268 1068.507 586.030 C 1069.242 589.377, 1071.374 591.423, 1076.254 593.462 C 1083.321 596.414, 1097.173 594.577, 1113.250 588.556 C 1120.756 585.744, 1122 585.514, 1122 586.939 C 1122 589.383, 1124.035 591, 1127.110 591 C 1129.747 591, 1137.242 585.833, 1141.405 581.145 C 1144.029 578.190, 1145.041 578.490, 1148.500 583.253 C 1154.409 591.389, 1165.618 594.465, 1180.567 592.054 C 1188.451 590.782, 1199.309 587.443, 1204.809 584.599 L 1208 582.949 1208 586.455 C 1208 589.274, 1207.559 590.062, 1205.750 590.472 C 1204.513 590.752, 1199.375 591.858, 1194.332 592.929 C 1183.236 595.285, 1178.530 597.564, 1173.682 602.930 C 1162.178 615.663, 1180.522 624.397, 1197.666 614.350 C 1203.203 611.105, 1209.448 604.012, 1211.501 598.637 L 1213.104 594.440 1226.369 591.250 C 1243.771 587.066, 1258.041 582.368, 1260.371 580.057 C 1264.161 576.300, 1261.068 576.178, 1250.753 579.680 C 1240.495 583.162, 1218.520 589, 1215.671 589 C 1212.790 589, 1211.851 578.036, 1214.327 573.300 C 1217.295 567.622, 1215.883 562, 1211.488 562 C 1207.580 562, 1205.682 565.927, 1206.191 572.958 L 1206.621 578.902 1199.574 582.053 C 1185.457 588.365, 1168.022 589.957, 1159.907 585.674 C 1154.612 582.879, 1149 575.907, 1149 572.122 C 1149 566.395, 1144.424 565.489, 1136.199 569.588 C 1133.342 571.012, 1129.541 573.876, 1127.752 575.953 C 1124.006 580.303, 1119.600 582.715, 1108.837 586.307 C 1093.209 591.524, 1080.307 592.398, 1076.034 588.530 C 1074.047 586.732, 1074.051 586.706, 1076.930 583.427 C 1080.893 578.914, 1081.582 576.301, 1079.435 573.928 C 1076.864 571.088, 1074.169 571.565, 1070.566 575.498 C 1068.294 577.978, 1065.198 579.740, 1059.931 581.549 C 1051.839 584.330, 1028.861 590.194, 1028.291 589.624 C 1028.097 589.430, 1027.663 586.950, 1027.327 584.114 C 1026.870 580.257, 1027.174 577.940, 1028.533 574.927 C 1030.801 569.898, 1029.723 565.680, 1026.036 565.155 C 1022.629 564.670, 1021 567.410, 1021 573.628 L 1021 578.873 1011.250 583.560 C 993.359 592.162, 975.206 596.233, 970.525 592.692 C 968.578 591.219, 968.576 591.094, 970.379 583.849 C 971.385 579.807, 972.048 575.390, 971.854 574.034 C 971.403 570.892, 966.731 567.739, 958.437 564.979 C 954.717 563.741, 951.545 562.018, 950.955 560.915 C 949.700 558.570, 947.161 558.418, 946.309 560.636 M 1210 568.441 C 1210 569.298, 1210.450 570, 1211 570 C 1211.550 570, 1212 569.577, 1212 569.059 C 1212 568.541, 1211.550 567.840, 1211 567.500 C 1210.450 567.160, 1210 567.584, 1210 568.441 M 1025.079 571.583 C 1025.127 572.748, 1025.364 572.985, 1025.683 572.188 C 1025.972 571.466, 1025.936 570.603, 1025.604 570.271 C 1025.272 569.939, 1025.036 570.529, 1025.079 571.583 M 1137.500 574.881 C 1133.501 577.379, 1127.464 583.797, 1128.314 584.647 C 1128.687 585.020, 1130.118 584.812, 1131.494 584.185 C 1134.405 582.858, 1143 575.155, 1143 573.873 C 1143 572.455, 1140.712 572.875, 1137.500 574.881 M 737.129 578.019 C 734.505 582.322, 733.379 587.779, 734.819 589.219 C 737.010 591.410, 745 586.129, 745 582.490 C 745 581.904, 743.707 579.875, 742.126 577.981 L 739.251 574.538 737.129 578.019 M 887.035 577.934 C 885.306 581.165, 885.803 582.488, 888 580.500 C 890.092 578.607, 890.692 576, 889.035 576 C 888.505 576, 887.605 576.870, 887.035 577.934 M 1074.035 577.934 C 1072.306 581.165, 1072.803 582.488, 1075 580.500 C 1077.092 578.607, 1077.692 576, 1076.035 576 C 1075.505 576, 1074.605 576.870, 1074.035 577.934 M 1016.500 595.654 C 1005.354 598.009, 1000.427 599.632, 997.087 602.052 C 989.947 607.224, 990.974 612, 999.224 612 C 1005.965 612, 1014.239 606.666, 1019.347 599.027 C 1022.003 595.054, 1021.601 594.577, 1016.500 595.654 M 1195.272 597.027 C 1185.170 599.308, 1180.724 601.351, 1177.488 605.196 C 1173.976 609.370, 1174.266 611.603, 1178.503 613.001 C 1182.786 614.414, 1186.953 613.616, 1193.422 610.143 C 1200.496 606.345, 1209.192 594.785, 1204.750 595.084 C 1204.063 595.131, 1199.798 596.005, 1195.272 597.027" stroke="none" fill="#000000" fill-rule="evenodd"/>
</svg>